<svg xmlns="http://www.w3.org/2000/svg" version="1.1" xmlns:xlink="http://www.w3.org/1999/xlink" xmlns:svgjs="http://svgjs.dev/svgjs" viewBox="0 0 800 800"><defs><filter id="bbburst-blur-1" x="-100%" y="-100%" width="400%" height="400%"><feGaussianBlur in="SourceGraphic" stdDeviation="1"></feGaussianBlur></filter><filter id="bbburst-blur-2" x="-100%" y="-100%" width="400%" height="400%"><feGaussianBlur in="SourceGraphic" stdDeviation="2"></feGaussianBlur></filter><filter id="bbburst-blur-3" x="-100%" y="-100%" width="400%" height="400%"><feGaussianBlur in="SourceGraphic" stdDeviation="4"></feGaussianBlur></filter><filter id="bbburst-blur-4" x="-100%" y="-100%" width="400%" height="400%"><feGaussianBlur in="SourceGraphic" stdDeviation="12"></feGaussianBlur></filter><symbol id="bbburst-shape-1" viewBox="0 0 194 167"><path d="m97 0 96.129 166.5H.871L97 0Z"></path></symbol><symbol id="bbburst-shape-4" viewBox="0 0 149 143"><path d="M71.647 2.781c.898-2.764 4.808-2.764 5.706 0l15.445 47.534a3 3 0 0 0 2.853 2.073h49.98c2.906 0 4.115 3.719 1.764 5.427L106.96 87.193a2.999 2.999 0 0 0-1.09 3.354l15.445 47.534c.898 2.764-2.266 5.062-4.617 3.354l-40.435-29.378a3 3 0 0 0-3.526 0l-40.435 29.378c-2.351 1.708-5.515-.59-4.617-3.354L43.13 90.547a3 3 0 0 0-1.09-3.354L1.605 57.815c-2.35-1.708-1.142-5.427 1.764-5.427h49.98a3 3 0 0 0 2.853-2.073L71.647 2.781Z"></path></symbol><symbol id="bbburst-shape-6" viewBox="0 0 133 116"><path d="M59.7487 10.2513c-13.6683-13.66839-35.8291-13.66839-49.4974 0-13.66839 13.6683-13.66839 35.8291 0 49.4974l49.4974-49.4974ZM66.5 66.5 41.7513 91.2487 66.5 115.997l24.7487-24.7483L66.5 66.5Zm56.249-6.7513c13.668-13.6683 13.668-35.8291 0-49.4974-13.669-13.66839-35.8294-13.66839-49.4977 0l49.4977 49.4974Zm-112.4977 0 31.5 31.5 49.4974-49.4974-31.5-31.5-49.4974 49.4974Zm80.9974 31.5 31.5003-31.5-49.4977-49.4974-31.5 31.5 49.4974 49.4974Z"></path></symbol><symbol id="bbburst-shape-8" viewBox="0 0 87 168"><path d="m12 12 31.2546 18.0749c16.4102 9.4902 20.014 31.6325 7.4603 45.8369L36.3296 92.1884c-12.5684 14.2206-8.9394 36.3916 7.5068 45.8636L75 156" stroke-width="14" stroke-linecap="round" stroke-linejoin="round"></path></symbol><symbol id="bbburst-shape-10" viewBox="0 0 145 145"><circle cx="72.5" cy="72.5" r="61.5" fill="none" stroke-width="22"></circle></symbol></defs><use xlink:href="#bbburst-shape-6" width="11.555420942017179" opacity="0.8721243374604074" transform="matrix(0.9995319239274918,0.030593022894228196,-0.030593022894228196,0.9995319239274918,98.51975951954432,311.25481881915783)" fill="#ffa6d5"></use><use xlink:href="#bbburst-shape-10" width="10.57625054370676" opacity="0.883966648423876" transform="matrix(0.767966104366714,0.6404904859120184,-0.6404904859120184,0.767966104366714,353.8184077766301,433.53161346169355)" fill="none" stroke="#00a19d"></use><use xlink:href="#bbburst-shape-8" width="28.95444145905757" opacity="0.23599629093943697" transform="matrix(0.8084230190989266,0.5886019216677573,-0.5886019216677573,0.8084230190989266,279.239006547576,-293.87555365444865)" fill="none" stroke="#2c2891" filter="url(#bbburst-blur-3)"></use><use xlink:href="#bbburst-shape-6" width="39.750871529505815" opacity="0.2984509267694193" transform="matrix(0.8543597477886752,-0.5196820387106633,0.5196820387106633,0.8543597477886752,92.51346120806238,-157.07379010405253)" fill="#2c2891" filter="url(#bbburst-blur-2)"></use><use xlink:href="#bbburst-shape-4" width="53.54455752393336" opacity="0.29838975406665647" transform="matrix(0.9242146477869976,-0.38187338846266317,0.38187338846266317,0.9242146477869976,350.7197776021575,-21.22682484866243)" fill="#00a19d" filter="url(#bbburst-blur-2)"></use><use xlink:href="#bbburst-shape-6" width="10.730392370923196" opacity="0.8486880006702961" transform="matrix(0.9684150561707197,-0.2493436964951427,0.2493436964951427,0.9684150561707197,-92.6809719481113,263.1567259470197)" fill="#2c2891"></use><use xlink:href="#bbburst-shape-8" width="47.345202334582766" opacity="0.34062814651479834" transform="matrix(0.7933841289066776,-0.6087213024028256,0.6087213024028256,0.7933841289066776,141.94481537002292,-23.88665382527546)" fill="none" stroke="#ff5c58" filter="url(#bbburst-blur-2)"></use><use xlink:href="#bbburst-shape-4" width="20.029648870128625" opacity="0.7046366934905304" transform="matrix(0.862138391157818,-0.5066728673333606,0.5066728673333606,0.862138391157818,60.88552030876323,345.5274574907184)" fill="#ffa6d5"></use><use xlink:href="#bbburst-shape-10" width="17.63369339624099" opacity="0.6596612593991216" transform="matrix(0.9998114455872644,0.01941837461541438,-0.01941837461541438,0.9998114455872644,338.37098402053346,374.89771535781045)" fill="none" stroke="#ffa6d5"></use><use xlink:href="#bbburst-shape-6" width="30.927461538636077" opacity="0.5313054125635428" transform="matrix(0.9074458624426408,-0.42016902162788233,0.42016902162788233,0.9074458624426408,252.6498879914777,268.3988703256818)" fill="#ffa6d5" filter="url(#bbburst-blur-1)"></use><use xlink:href="#bbburst-shape-4" width="25.522397124896976" opacity="0.3056392321355572" transform="matrix(0.9913763066563079,-0.13104586449216168,0.13104586449216168,0.9913763066563079,12.300671824286297,-284.89236543861966)" fill="#2c2891" filter="url(#bbburst-blur-2)"></use><use xlink:href="#bbburst-shape-10" width="10.77447039995401" opacity="0.8179854196998531" transform="matrix(0.8732906929694665,0.487199513108243,-0.487199513108243,0.8732906929694665,360.7613428070089,384.5793863232158)" fill="none" stroke="#00a19d"></use><use xlink:href="#bbburst-shape-6" width="24.83470809496687" opacity="0.596638210473384" transform="matrix(0.7256101180649017,-0.6881060649070311,0.6881060649070311,0.7256101180649017,-118.55149090476962,150.54533289120496)" fill="#00a19d" filter="url(#bbburst-blur-1)"></use><use xlink:href="#bbburst-shape-8" width="36.341899340398584" opacity="0.45641164967881453" transform="matrix(0.9962665309144912,0.08633075569925885,-0.08633075569925885,0.9962665309144912,530.8458294328418,224.2436832393957)" fill="none" stroke="#00a19d" filter="url(#bbburst-blur-1)"></use><use xlink:href="#bbburst-shape-10" width="15.525602592680906" opacity="0.7081102744045709" transform="matrix(0.9994967844323515,-0.03172030752356543,0.03172030752356543,0.9994967844323515,70.39779819932261,123.05459106422808)" fill="none" stroke="#ffa6d5"></use><use xlink:href="#bbburst-shape-10" width="8.003168512758343" opacity="0.9254135891813479" transform="matrix(0.9705999225221605,-0.2406985467342416,0.2406985467342416,0.9705999225221605,-50.69917452660859,356.8982351514544)" fill="none" stroke="#ffa6d5"></use><use xlink:href="#bbburst-shape-10" width="35.032165313003404" opacity="0.2259848637778974" transform="matrix(0.9257953097531829,0.3780251902175411,-0.3780251902175411,0.9257953097531829,898.8464452521673,298.0462809203511)" fill="none" stroke="#00a19d" filter="url(#bbburst-blur-3)"></use><use xlink:href="#bbburst-shape-4" width="13.122698330364994" opacity="0.9135883023250078" transform="matrix(0.7512403538840343,-0.6600287347503826,0.6600287347503826,0.7512403538840343,-257.15865083849087,418.2377043870068)" fill="#ffa6d5"></use><use xlink:href="#bbburst-shape-4" width="12.171251094416041" opacity="0.7834260772189149" transform="matrix(0.749482346810377,-0.6620243287218452,0.6620243287218452,0.749482346810377,-170.28712939733717,311.6613806783591)" fill="#00a19d"></use><use xlink:href="#bbburst-shape-4" width="8.8828645682826" opacity="0.902519628096309" transform="matrix(0.8428259982979623,-0.5381861542190055,0.5381861542190055,0.8428259982979623,-143.53637621824276,403.5769434993817)" fill="#2c2891"></use><use xlink:href="#bbburst-shape-10" width="16.723428537571685" opacity="0.7395446757495083" transform="matrix(0.9940363652227847,-0.10904909268157373,0.10904909268157373,0.9940363652227847,198.09805903684085,330.343870892575)" fill="none" stroke="#2c2891"></use><use xlink:href="#bbburst-shape-6" width="11.967052995836669" opacity="0.7519499914724957" transform="matrix(0.9996001637461275,-0.0282756545231965,0.0282756545231965,0.9996001637461275,228.41819602803406,366.3350746775925)" fill="#00a19d"></use><use xlink:href="#bbburst-shape-10" width="24.402040119722535" opacity="0.5931239291309904" transform="matrix(0.912237316652765,0.40966215117601856,-0.40966215117601856,0.912237316652765,544.7119683151911,321.01091539927177)" fill="none" stroke="#2c2891" filter="url(#bbburst-blur-1)"></use><use xlink:href="#bbburst-shape-1" width="10.733906676413442" opacity="0.8267073361896907" transform="matrix(0.9178245420381316,0.3969862844387625,-0.3969862844387625,0.9178245420381316,198.44334966954324,263.2919738240163)" fill="#00a19d"></use><use xlink:href="#bbburst-shape-1" width="18.63959176038792" opacity="0.6820602420145996" transform="matrix(0.8804647763281612,0.47411156666485266,-0.47411156666485266,0.8804647763281612,449.1102176077502,271.860074360229)" fill="#ffa6d5"></use><use xlink:href="#bbburst-shape-6" width="6.050822186482103" opacity="0.9553021157563983" transform="matrix(0.8580388554566325,0.5135847763774469,-0.5135847763774469,0.8580388554566325,226.69265689638513,417.4305167419461)" fill="#ffa6d5"></use><use xlink:href="#bbburst-shape-4" width="19.29244933294059" opacity="0.7698671839511597" transform="matrix(0.930463335633356,-0.3663850174912297,0.3663850174912297,0.930463335633356,-20.810973278575915,244.78073098412125)" fill="#2c2891"></use><use xlink:href="#bbburst-shape-10" width="22.446359418780723" opacity="0.6145401510073016" transform="matrix(0.9888224560899237,0.1490977878182332,-0.1490977878182332,0.9888224560899237,372.8763129962105,194.504248673753)" fill="none" stroke="#ffa6d5" filter="url(#bbburst-blur-1)"></use><use xlink:href="#bbburst-shape-6" width="9.547886776458943" opacity="0.9284942239369902" transform="matrix(0.9446415716698157,0.3281041009697691,-0.3281041009697691,0.9446415716698157,197.27629146823097,408.89074325483483)" fill="#2c2891"></use><use xlink:href="#bbburst-shape-4" width="43.82172172728136" opacity="0.3878451375886869" transform="matrix(0.9177924210091088,-0.39706053938692853,0.39706053938692853,0.9177924210091088,328.2472400099364,98.81213862290548)" fill="#ffa6d5" filter="url(#bbburst-blur-2)"></use><use xlink:href="#bbburst-shape-8" width="12.265296575923271" opacity="0.8217454017703707" transform="matrix(0.939213250862692,0.3433343405544133,-0.3433343405544133,0.939213250862692,262.9441196736652,301.7244444210982)" fill="none" stroke="#ffa6d5"></use><use xlink:href="#bbburst-shape-8" width="6.626227827218802" opacity="0.9628873550670061" transform="matrix(0.9929568567517196,-0.11847649821692473,0.11847649821692473,0.9929568567517196,-14.83612600370671,393.5901176577128)" fill="none" stroke="#2c2891"></use><use xlink:href="#bbburst-shape-6" width="9.73680361933029" opacity="0.8164785014923976" transform="matrix(0.9641069387823314,-0.26551423802079205,0.26551423802079205,0.9641069387823314,-92.58149510540359,233.04492644831834)" fill="#00a19d"></use><use xlink:href="#bbburst-shape-8" width="30.64593184904599" opacity="0.30539814655336084" transform="matrix(0.7836619024608317,0.6211875905324171,-0.6211875905324171,0.7836619024608317,429.57632570149656,-190.20169817613203)" fill="none" stroke="#ffa6d5" filter="url(#bbburst-blur-2)"></use><use xlink:href="#bbburst-shape-4" width="17.70735088875915" opacity="0.6499782180487543" transform="matrix(0.880001404866479,0.4749710806280981,-0.4749710806280981,0.880001404866479,293.95077116806965,112.10866821955017)" fill="#ff5c58" filter="url(#bbburst-blur-1)"></use><use xlink:href="#bbburst-shape-10" width="7.708164082912622" opacity="0.8406329107431036" transform="matrix(0.913586049635699,-0.40664545972018196,0.40664545972018196,0.913586049635699,-7.364802928290885,422.87191471278936)" fill="none" stroke="#2c2891"></use><use xlink:href="#bbburst-shape-10" width="9.569022630701708" opacity="0.8675587953203799" transform="matrix(0.8618161132559216,0.5072208463110094,-0.5072208463110094,0.8618161132559216,254.91144070232926,332.89573381363505)" fill="none" stroke="#2c2891"></use><use xlink:href="#bbburst-shape-6" width="19.683481481169" opacity="0.6740718999515214" transform="matrix(0.9186482774181408,-0.3950763753968118,0.3950763753968118,0.9186482774181408,-26.788317995794927,142.23575741769895)" fill="#2c2891"></use><use xlink:href="#bbburst-shape-10" width="14.382716345772014" opacity="0.7789563765363199" transform="matrix(0.9947152725060271,-0.10267193698017076,0.10267193698017076,0.9947152725060271,165.0982241235102,344.9323684360677)" fill="none" stroke="#00a19d"></use><use xlink:href="#bbburst-shape-10" width="15.96827926366742" opacity="0.7715419707787746" transform="matrix(0.9499895777658646,0.31228160710524455,-0.31228160710524455,0.9499895777658646,282.15522136571633,259.31796042141156)" fill="none" stroke="#ff5c58"></use><use xlink:href="#bbburst-shape-10" width="43.52169891000638" opacity="0.4870531632982581" transform="matrix(0.8682021814046377,-0.4962106127484866,0.4962106127484866,0.8682021814046377,189.84539941095014,151.61274508766513)" fill="none" stroke="#ff5c58" filter="url(#bbburst-blur-1)"></use><use xlink:href="#bbburst-shape-10" width="10.139980962690121" opacity="0.9092512621657477" transform="matrix(0.8895735803148439,0.4567919058015695,-0.4567919058015695,0.8895735803148439,261.9238951216065,406.82959724544844)" fill="none" stroke="#2c2891"></use><use xlink:href="#bbburst-shape-6" width="16.352643729009635" opacity="0.752452055125112" transform="matrix(0.9717614566599748,-0.2359654028667845,0.2359654028667845,0.9717614566599748,-19.898610818227695,179.80514129256835)" fill="#00a19d"></use><use xlink:href="#bbburst-shape-4" width="10.592023849018087" opacity="0.8879142540252898" transform="matrix(0.9334493061780998,-0.35870934305594004,0.35870934305594004,0.9334493061780998,-36.983006877473315,416.5227251824551)" fill="#ffa6d5"></use><use xlink:href="#bbburst-shape-8" width="14.291587955221754" opacity="0.7877230938914042" transform="matrix(0.854666418064318,0.519177535948069,-0.519177535948069,0.854666418064318,217.0709868339835,242.71376576250685)" fill="none" stroke="#2c2891"></use><use xlink:href="#bbburst-shape-4" width="8.924899432100874" opacity="0.8570644744439839" transform="matrix(0.7522464686569496,0.6588818182293006,-0.6588818182293006,0.7522464686569496,296.7388367550833,357.9833914871626)" fill="#2c2891"></use><use xlink:href="#bbburst-shape-10" width="27.874380896185365" opacity="0.45365940448571296" transform="matrix(0.99824983767204,-0.05913764949459593,0.05913764949459593,0.99824983767204,-0.9715418057024223,-143.58923295263196)" fill="none" stroke="#2c2891" filter="url(#bbburst-blur-1)"></use><use xlink:href="#bbburst-shape-6" width="21.783537443272742" opacity="0.5947889741719421" transform="matrix(0.8899130373156406,-0.45613022922806945,0.45613022922806945,0.8899130373156406,73.13731739633002,142.70023241830194)" fill="#00a19d" filter="url(#bbburst-blur-1)"></use><use xlink:href="#bbburst-shape-10" width="13.989872280726061" opacity="0.7531015899668574" transform="matrix(0.9981398390065049,0.060966070794076135,-0.060966070794076135,0.9981398390065049,242.41106165748218,298.67670373202765)" fill="none" stroke="#2c2891"></use><use xlink:href="#bbburst-shape-6" width="13.353102982360642" opacity="0.7736500137424175" transform="matrix(0.9711184436047748,0.238597922226158,-0.238597922226158,0.9711184436047748,135.34618134346127,188.41468603216583)" fill="#ffa6d5"></use><use xlink:href="#bbburst-shape-4" width="45.65050543512722" opacity="-0.019056296655906912" transform="matrix(0.9766410836008441,-0.21487715984480282,0.21487715984480282,0.9766410836008441,623.5060008038114,-294.95890372969984)" fill="#00a19d" filter="url(#bbburst-blur-3)"></use><use xlink:href="#bbburst-shape-4" width="5.154977865891066" opacity="0.9701588326969949" transform="matrix(0.8441641499625706,0.5360847768011797,-0.5360847768011797,0.8441641499625706,233.43540305777213,439.9348844767844)" fill="#00a19d"></use><use xlink:href="#bbburst-shape-8" width="39.66884611589482" opacity="0.2277448807618062" transform="matrix(0.9821655572840237,0.1880181323302711,-0.1880181323302711,0.9821655572840237,491.4444633857964,-234.19082833831908)" fill="none" stroke="#ff5c58" filter="url(#bbburst-blur-3)"></use><use xlink:href="#bbburst-shape-6" width="46.6456336197946" opacity="0.1447947673243718" transform="matrix(0.8926201448510317,-0.45080957954121065,0.45080957954121065,0.8926201448510317,444.69453272389575,-107.1323632115211)" fill="#ffa6d5" filter="url(#bbburst-blur-3)"></use><use xlink:href="#bbburst-shape-1" width="17.887899058437164" opacity="0.690529514352635" transform="matrix(0.8059473385771394,0.5919872358762694,-0.5919872358762694,0.8059473385771394,530.4269869438274,399.82733942641886)" fill="#ffbd9b"></use><use xlink:href="#bbburst-shape-4" width="32.35460125658438" opacity="0.37233239410509367" transform="matrix(0.9461227097602749,-0.32380830451962556,0.32380830451962556,0.9461227097602749,-108.17868867663225,-199.7801481518839)" fill="#ffa6d5" filter="url(#bbburst-blur-2)"></use><use xlink:href="#bbburst-shape-4" width="8.899948375601397" opacity="0.7703292773425852" transform="matrix(0.7354749984272142,0.6775518627297021,-0.6775518627297021,0.7354749984272142,496.8340676067006,486.50196148304155)" fill="#2c2891"></use><use xlink:href="#bbburst-shape-6" width="5.03466220479439" opacity="0.9784107459719431" transform="matrix(0.9966189064569326,-0.0821629800615076,0.0821629800615076,0.9966189064569326,-14.684536805474377,395.3915227167368)" fill="#ffbd9b"></use><use xlink:href="#bbburst-shape-10" width="34.14358165026619" opacity="0.5685711837139402" transform="matrix(0.898610492554847,-0.4387472879350198,0.4387472879350198,0.898610492554847,137.32121678355742,167.9724967859426)" fill="none" stroke="#ffa6d5" filter="url(#bbburst-blur-1)"></use><use xlink:href="#bbburst-shape-4" width="38.09713955961022" opacity="0.4650698803186518" transform="matrix(0.9094934986662077,0.41571814476144875,-0.41571814476144875,0.9094934986662077,320.38943701926166,-78.39787774464816)" fill="#00a19d" filter="url(#bbburst-blur-1)"></use><use xlink:href="#bbburst-shape-6" width="6.156034179672565" opacity="0.9462450606863133" transform="matrix(0.9971651777487792,0.0752436594354999,-0.0752436594354999,0.9971651777487792,79.51511275971077,389.295789155411)" fill="#00a19d"></use><use xlink:href="#bbburst-shape-4" width="18.058324929274274" opacity="0.5279908463705154" transform="matrix(0.7683194654675266,0.6400665582450736,-0.6400665582450736,0.7683194654675266,716.412562064504,420.63459192365235)" fill="#2c2891" filter="url(#bbburst-blur-1)"></use><use xlink:href="#bbburst-shape-6" width="23.181161217200444" opacity="0.6283948348079688" transform="matrix(0.953993821927138,0.2998262625669274,-0.2998262625669274,0.953993821927138,307.97591943568193,101.16258286946714)" fill="#ffbd9b" filter="url(#bbburst-blur-1)"></use><use xlink:href="#bbburst-shape-4" width="14.505696484426077" opacity="0.6148148121717208" transform="matrix(0.9863309381326653,0.16477645609229616,-0.16477645609229616,0.9863309381326653,443.48248831247076,385.51993531092)" fill="#ffbd9b" filter="url(#bbburst-blur-1)"></use><use xlink:href="#bbburst-shape-10" width="25.12938447373392" opacity="0.5624741736260332" transform="matrix(0.9992931929081892,0.03759141667131767,-0.03759141667131767,0.9992931929081892,78.18403307196809,-31.116349974789557)" fill="none" stroke="#00a19d" filter="url(#bbburst-blur-1)"></use><use xlink:href="#bbburst-shape-8" width="14.111383435623049" opacity="0.8527323521200119" transform="matrix(0.7789564745770402,-0.6270779941239437,0.6270779941239437,0.7789564745770402,-168.25361779472817,374.8131067346157)" fill="none" stroke="#00a19d"></use><use xlink:href="#bbburst-shape-4" width="14.737640589817843" opacity="0.7503107721574231" transform="matrix(0.9978653350137235,0.06530523086207793,-0.06530523086207793,0.9978653350137235,34.28354746012451,151.17929091207122)" fill="#ffbd9b"></use><use xlink:href="#bbburst-shape-4" width="15.406635503287625" opacity="0.6513335972394403" transform="matrix(0.8205576841864335,0.5715637207893773,-0.5715637207893773,0.8205576841864335,555.2246103358308,363.81372384510956)" fill="#ff5c58"></use><use xlink:href="#bbburst-shape-4" width="12.718840209158166" opacity="0.8295402606592586" transform="matrix(0.9151766064931853,-0.4030530720979775,0.4030530720979775,0.9151766064931853,-91.46887458704519,283.7089857681963)" fill="#ff5c58"></use><use xlink:href="#bbburst-shape-4" width="26.22022684421786" opacity="0.5291263673005085" transform="matrix(0.9069973388052147,-0.4211363525038638,0.4211363525038638,0.9069973388052147,-152.40612000047395,-27.3008058290892)" fill="#ff5c58" filter="url(#bbburst-blur-1)"></use><use xlink:href="#bbburst-shape-6" width="40.034472560177896" opacity="0.5072169954390228" transform="matrix(0.9856001627715315,-0.16909263480332468,0.16909263480332468,0.9856001627715315,246.77511033213867,46.95069273387634)" fill="#2c2891" filter="url(#bbburst-blur-1)"></use><use xlink:href="#bbburst-shape-6" width="11.28695095404948" opacity="0.720396832331996" transform="matrix(0.8068148941256231,-0.5908043048396479,0.5908043048396479,0.8068148941256231,34.81449533969899,433.98972764550876)" fill="#ff5c58"></use><use xlink:href="#bbburst-shape-4" width="31.25383595762361" opacity="0.379772905490648" transform="matrix(0.9994528616059949,0.03307532959152416,-0.03307532959152416,0.9994528616059949,210.388493150513,-182.85638699583168)" fill="#ffa6d5" filter="url(#bbburst-blur-2)"></use><use xlink:href="#bbburst-shape-1" width="37.793665319545966" opacity="0.08809813451721649" transform="matrix(0.7449525405064605,0.6671174652135637,-0.6671174652135637,0.7449525405064605,999.7745762382865,-33.523674275835674)" fill="#ffbd9b" filter="url(#bbburst-blur-3)"></use><use xlink:href="#bbburst-shape-4" width="40.269806508302196" opacity="0.405139767557104" transform="matrix(0.8810899221396266,0.47294878063484497,-0.47294878063484497,0.8810899221396266,453.44957257719454,-85.6811490337098)" fill="#ffa6d5" filter="url(#bbburst-blur-2)"></use><use xlink:href="#bbburst-shape-6" width="12.94591754035885" opacity="0.7977038994624845" transform="matrix(0.8954534129653641,0.4451552372023507,-0.4451552372023507,0.8954534129653641,236.88002998945308,247.23776213382985)" fill="#ffa6d5"></use><use xlink:href="#bbburst-shape-4" width="32.719156237753765" opacity="0.49199971564291844" transform="matrix(0.8601842711691469,-0.5099833523098607,0.5099833523098607,0.8601842711691469,-122.18590462262242,-34.57801746148402)" fill="#ffa6d5" filter="url(#bbburst-blur-1)"></use><use xlink:href="#bbburst-shape-10" width="35.92215574615483" opacity="0.13044676591487303" transform="matrix(0.8722385176681705,0.4890807380137073,-0.4890807380137073,0.8722385176681705,625.9334926514816,-304.162076140402)" fill="none" stroke="#ffa6d5" filter="url(#bbburst-blur-3)"></use><use xlink:href="#bbburst-shape-10" width="11.918846719292723" opacity="0.8538675338481005" transform="matrix(0.8869544174022369,0.461856970771968,-0.461856970771968,0.8869544174022369,298.3733173809221,357.5328034886403)" fill="none" stroke="#ffa6d5"></use><use xlink:href="#bbburst-shape-10" width="32.36027293958519" opacity="0.379571398489537" transform="matrix(0.9260807274977012,0.377325437993953,-0.377325437993953,0.9260807274977012,699.8650123648247,164.75986833349816)" fill="none" stroke="#ffbd9b" filter="url(#bbburst-blur-2)"></use><use xlink:href="#bbburst-shape-6" width="34.53309315230459" opacity="0.2930065274976865" transform="matrix(0.9422774143748959,0.33483320378803666,-0.33483320378803666,0.9422774143748959,772.6247057203942,151.10261430012935)" fill="#ff5c58" filter="url(#bbburst-blur-2)"></use><use xlink:href="#bbburst-shape-6" width="24.100425377567284" opacity="0.4621586662169519" transform="matrix(0.9338049078041858,-0.35778260740401585,0.35778260740401585,0.9338049078041858,373.85938056763996,329.5385749919959)" fill="#00a19d" filter="url(#bbburst-blur-1)"></use><use xlink:href="#bbburst-shape-4" width="16.487827418520308" opacity="0.6351997663044803" transform="matrix(0.7346598371833637,-0.6784356444274678,0.6784356444274678,0.7346598371833637,81.64541547977808,447.3131995877487)" fill="#00a19d" filter="url(#bbburst-blur-1)"></use><use xlink:href="#bbburst-shape-6" width="21.96286774550904" opacity="0.6166593601024326" transform="matrix(0.9877005693097034,-0.1563572364340321,0.1563572364340321,0.9877005693097034,11.800526269522237,32.882103785957895)" fill="#ff5c58" filter="url(#bbburst-blur-1)"></use><use xlink:href="#bbburst-shape-4" width="10.85824476575156" opacity="0.8094969243769428" transform="matrix(0.9999654066586778,0.008317781311442531,-0.008317781311442531,0.9999654066586778,184.420242834372,361.23702655459573)" fill="#00a19d"></use><use xlink:href="#bbburst-shape-6" width="12.31487120338523" opacity="0.8428559611552667" transform="matrix(0.8742548057547933,-0.4854673363004443,0.4854673363004443,0.8742548057547933,-47.15616279110563,415.0217769310563)" fill="#2c2891"></use><use xlink:href="#bbburst-shape-10" width="14.603372400855868" opacity="0.734199755354733" transform="matrix(0.7692777136524988,-0.6389145477116515,0.6389145477116515,0.7692777136524988,-36.47682132335359,354.9788113585026)" fill="none" stroke="#ffbd9b"></use><use xlink:href="#bbburst-shape-6" width="21.775838264484086" opacity="0.5980892198388681" transform="matrix(0.7454856455803572,0.6665216817430908,-0.6665216817430908,0.7454856455803572,626.9961332306697,334.1220055548554)" fill="#ff5c58" filter="url(#bbburst-blur-1)"></use><use xlink:href="#bbburst-shape-6" width="51.649499506795856" opacity="0.17073102920880456" transform="matrix(0.9909375123082095,-0.13432366396289677,0.13432366396289677,0.9909375123082095,658.6224446232254,28.77206277762366)" fill="#00a19d" filter="url(#bbburst-blur-3)"></use><use xlink:href="#bbburst-shape-6" width="16.407834225302352" opacity="0.819770250736538" transform="matrix(0.875273369248487,-0.4836285031761484,0.4836285031761484,0.875273369248487,-47.070382436056065,359.51018937985646)" fill="#ffbd9b"></use><use xlink:href="#bbburst-shape-4" width="17.72987296943484" opacity="0.7288002105450688" transform="matrix(0.763263931802029,-0.646086813369618,0.646086813369618,0.763263931802029,-91.18650084240124,292.41528869991805)" fill="#00a19d"></use><use xlink:href="#bbburst-shape-4" width="12.563731977598355" opacity="0.6929171956955952" transform="matrix(0.9944497297320757,-0.1052128083258007,0.1052128083258007,0.9944497297320757,257.8494203966412,379.3671976638988)" fill="#2c2891"></use><use xlink:href="#bbburst-shape-6" width="17.30117829810881" opacity="0.731761609992237" transform="matrix(0.8809026641388397,0.4732974712726602,-0.4732974712726602,0.8809026641388397,308.37801260884453,207.10420089170123)" fill="#00a19d"></use><use xlink:href="#bbburst-shape-6" width="14.306713320743345" opacity="0.7788469606856387" transform="matrix(0.7406902487041614,-0.6718466755700793,0.6718466755700793,0.7406902487041614,-92.29793887402056,382.51575080039754)" fill="#2c2891"></use><use xlink:href="#bbburst-shape-8" width="23.536844456881774" opacity="0.48693532021711583" transform="matrix(0.7718861417176947,0.6357607916694541,-0.6357607916694541,0.7718861417176947,757.4882294974643,455.1789900266982)" fill="none" stroke="#ff5c58" filter="url(#bbburst-blur-1)"></use><use xlink:href="#bbburst-shape-8" width="9.565926334232572" opacity="0.948872264402929" transform="matrix(0.7171613408232166,-0.6969071754750744,0.6969071754750744,0.7171613408232166,-241.16730967503617,485.9575066179589)" fill="none" stroke="#2c2891"></use><use xlink:href="#bbburst-shape-6" width="25.940713532873144" opacity="0.653673938377413" transform="matrix(0.9780528238457805,-0.20835708235453554,0.20835708235453554,0.9780528238457805,217.025479959989,263.3635454874138)" fill="#00a19d"></use><use xlink:href="#bbburst-shape-10" width="13.435665184567453" opacity="0.8828285394334542" transform="matrix(0.9999932141847929,0.003683963133219101,-0.003683963133219101,0.9999932141847929,8.4764415001464,283.6126141601684)" fill="none" stroke="#ff5c58"></use><use xlink:href="#bbburst-shape-6" width="20.003725218699127" opacity="0.7131656520981167" transform="matrix(0.9989283938709592,0.046282436392068214,-0.046282436392068214,0.9989283938709592,224.97775630814328,211.76187952764138)" fill="#2c2891"></use><use xlink:href="#bbburst-shape-6" width="8.983030385043449" opacity="0.9385433936409813" transform="matrix(0.7165742333407811,-0.6975108372721329,0.6975108372721329,0.7165742333407811,-255.18019258143966,461.3161840034852)" fill="#2c2891"></use><use xlink:href="#bbburst-shape-10" width="18.842526404716644" opacity="0.5977386241896006" transform="matrix(0.8640620067971336,-0.5033853875607734,0.5033853875607734,0.8640620067971336,-183.64337494315697,57.68787499246298)" fill="none" stroke="#2c2891" filter="url(#bbburst-blur-1)"></use><use xlink:href="#bbburst-shape-4" width="23.965067738384512" opacity="0.5318764499008293" transform="matrix(0.9305933439318196,-0.36605467928957586,0.36605467928957586,0.9305933439318196,295.66247106171807,315.01676356666525)" fill="#ffa6d5" filter="url(#bbburst-blur-1)"></use><use xlink:href="#bbburst-shape-1" width="10.832974511516841" opacity="0.8179677270463087" transform="matrix(0.8733363044076684,0.4871177469601743,-0.4871177469601743,0.8733363044076684,371.736869847023,435.8990696786564)" fill="#2c2891"></use><use xlink:href="#bbburst-shape-1" width="6.872073610195577" opacity="0.9655462981948688" transform="matrix(0.9997434577319451,0.022649916604142683,-0.022649916604142683,0.9997434577319451,12.745181733831553,366.32377318775343)" fill="#2c2891"></use><use xlink:href="#bbburst-shape-6" width="21.035733760511537" opacity="0.6898419619569656" transform="matrix(0.9123905770860814,-0.40932069926223785,0.40932069926223785,0.9123905770860814,-0.8361472732419486,181.57845467934493)" fill="#2c2891"></use><use xlink:href="#bbburst-shape-4" width="15.807708132220982" opacity="0.729732151435809" transform="matrix(0.99439303724956,0.10574728114516779,-0.10574728114516779,0.99439303724956,82.18339104274042,135.40418256598872)" fill="#2c2891"></use><use xlink:href="#bbburst-shape-4" width="7.75603009578486" opacity="0.9173584233171875" transform="matrix(0.7635393800743492,0.6457612678658257,-0.6457612678658257,0.7635393800743492,290.8051075571465,417.4409920098366)" fill="#00a19d"></use><use xlink:href="#bbburst-shape-6" width="36.021498810372805" opacity="0.38177892526898227" transform="matrix(0.8730999756364577,-0.4875412111233438,0.4875412111233438,0.8730999756364577,388.44529787965394,307.316154855467)" fill="#00a19d" filter="url(#bbburst-blur-2)"></use><use xlink:href="#bbburst-shape-4" width="40.16998750928135" opacity="0.3989992545135007" transform="matrix(0.9542087283500371,0.2991416098449113,-0.2991416098449113,0.9542087283500371,218.0180514421996,-177.05224876752416)" fill="#00a19d" filter="url(#bbburst-blur-2)"></use><use xlink:href="#bbburst-shape-6" width="29.946507710401367" opacity="0.421275547103131" transform="matrix(0.7252665966120868,-0.6884681284117083,0.6884681284117083,0.7252665966120868,290.8534164759845,476.8715293282738)" fill="#2c2891" filter="url(#bbburst-blur-2)"></use><use xlink:href="#bbburst-shape-10" width="9.998904721198597" opacity="0.8937814418087211" transform="matrix(0.7456947004575526,0.6662877859525274,-0.6662877859525274,0.7456947004575526,299.93304099486613,398.8794512373546)" fill="none" stroke="#ffbd9b"></use><use xlink:href="#bbburst-shape-4" width="25.049334912269416" opacity="0.5845180388920457" transform="matrix(0.9830973517350357,-0.18308357930617264,0.18308357930617264,0.9830973517350357,326.0061960178747,352.0403671466382)" fill="#ffa6d5" filter="url(#bbburst-blur-1)"></use><use xlink:href="#bbburst-shape-4" width="68.76632273420145" opacity="0.06662271173979073" transform="matrix(0.999422540952312,-0.033979179454840636,0.033979179454840636,0.999422540952312,541.1780578138676,-322.4981269277996)" fill="#2c2891" filter="url(#bbburst-blur-3)"></use><use xlink:href="#bbburst-shape-10" width="9.725832568538086" opacity="0.9288816899444556" transform="matrix(0.7725796192261906,-0.6349178938699983,0.6349178938699983,0.7725796192261906,-196.74079392921956,457.46548014770667)" fill="none" stroke="#2c2891"></use><use xlink:href="#bbburst-shape-6" width="20.489046164470356" opacity="0.6439589525874715" transform="matrix(0.9928322382857883,-0.11951630273913204,0.11951630273913204,0.9928322382857883,212.7066180651506,172.80122103201762)" fill="#00a19d" filter="url(#bbburst-blur-1)"></use><use xlink:href="#bbburst-shape-4" width="9.15832767196785" opacity="0.9076252096403028" transform="matrix(0.7677399024679814,0.6407616110211772,-0.6407616110211772,0.7677399024679814,344.16275449353907,476.4496232518527)" fill="#ffa6d5"></use><use xlink:href="#bbburst-shape-10" width="50.95222831060077" opacity="0.4104321503690649" transform="matrix(0.7408173309172167,-0.6717065447147966,0.6717065447147966,0.7408173309172167,134.62289091358662,109.25737325289793)" fill="none" stroke="#ffa6d5" filter="url(#bbburst-blur-2)"></use><use xlink:href="#bbburst-shape-8" width="15.687209300067146" opacity="0.8122173086459692" transform="matrix(0.7770799498759828,-0.629401899822951,0.629401899822951,0.7770799498759828,-144.89619595802637,344.0966274998917)" fill="none" stroke="#00a19d"></use><use xlink:href="#bbburst-shape-6" width="21.954884273955578" opacity="0.6774925758341881" transform="matrix(0.8084395103315479,-0.5885792709014538,0.5885792709014538,0.8084395103315479,-183.18493756846104,166.42283720994885)" fill="#2c2891"></use><use xlink:href="#bbburst-shape-4" width="20.087369971040406" opacity="0.6657877788064898" transform="matrix(0.7650193086910682,-0.6440073426055329,0.6440073426055329,0.7650193086910682,-43.33473211749407,250.59367943699527)" fill="#ffa6d5"></use><use xlink:href="#bbburst-shape-6" width="8.480525316200826" opacity="0.9410441379459927" transform="matrix(0.9282620576154551,0.3719268105306763,-0.3719268105306763,0.9282620576154551,153.50281878011373,368.8030514693709)" fill="#00a19d"></use><use xlink:href="#bbburst-shape-1" width="38.410894516168" opacity="0.2574613201368142" transform="matrix(0.9737411343993128,-0.22765808393013295,0.22765808393013295,0.9737411343993128,631.7582976508893,375.8786422820318)" fill="#00a19d" filter="url(#bbburst-blur-2)"></use><use xlink:href="#bbburst-shape-8" width="37.60657345797679" opacity="0.20640096149692466" transform="matrix(0.8584762476882133,0.51285332421187,-0.51285332421187,0.8584762476882133,943.0230198049835,199.4839615949577)" fill="none" stroke="#ffbd9b" filter="url(#bbburst-blur-3)"></use><use xlink:href="#bbburst-shape-1" width="16.3996925809182" opacity="0.7018253941739463" transform="matrix(0.771834510520041,0.6358234726480996,-0.6358234726480996,0.771834510520041,266.2898533527218,188.45651716082824)" fill="#ff5c58"></use><use xlink:href="#bbburst-shape-10" width="45.24492007753711" opacity="0.26454392063848997" transform="matrix(0.9241843080570356,0.38194680878512194,-0.38194680878512194,0.9241843080570356,753.1507158543695,28.102621816693386)" fill="none" stroke="#2c2891" filter="url(#bbburst-blur-2)"></use><use xlink:href="#bbburst-shape-4" width="29.975259114110948" opacity="0.5060474670572545" transform="matrix(0.9025801438706813,0.43052187388143276,-0.43052187388143276,0.9025801438706813,376.0110085260982,-11.027104719281624)" fill="#ffa6d5" filter="url(#bbburst-blur-1)"></use><use xlink:href="#bbburst-shape-6" width="26.21203231901266" opacity="0.548304303928178" transform="matrix(0.8723759581664681,0.48883554250191014,-0.48883554250191014,0.8723759581664681,572.6182948289497,214.2455495466479)" fill="#ffbd9b" filter="url(#bbburst-blur-1)"></use><use xlink:href="#bbburst-shape-10" width="8.707831050523144" opacity="0.7937415070627422" transform="matrix(0.9897988081576897,-0.1424721705092501,0.1424721705092501,0.9897988081576897,144.33577306027385,388.66440569938936)" fill="none" stroke="#00a19d"></use><use xlink:href="#bbburst-shape-1" width="12.60254923107642" opacity="0.7898474753539093" transform="matrix(0.982483559390369,0.18634928367887857,-0.18634928367887857,0.982483559390369,258.6326997349522,316.6576211647228)" fill="#00a19d"></use><use xlink:href="#bbburst-shape-10" width="47.62709234615359" opacity="0.19728669573776936" transform="matrix(0.8967933243916945,-0.44244969581466886,0.44244969581466886,0.8967933243916945,110.7113568986656,-289.0174386405295)" fill="none" stroke="#2c2891" filter="url(#bbburst-blur-3)"></use><use xlink:href="#bbburst-shape-1" width="30.870505498086132" opacity="0.5497212407470542" transform="matrix(0.9151597507235553,-0.40309134281896986,0.40309134281896986,0.9151597507235553,71.92566569221384,63.88650480222918)" fill="#ffbd9b" filter="url(#bbburst-blur-1)"></use><use xlink:href="#bbburst-shape-10" width="42.832718757178135" opacity="0.22208761917395758" transform="matrix(0.915361423252685,0.4026331640846528,-0.4026331640846528,0.915361423252685,323.16060330313894,-331.15946181505933)" fill="none" stroke="#2c2891" filter="url(#bbburst-blur-3)"></use><use xlink:href="#bbburst-shape-6" width="31.232721182577738" opacity="0.46829658718933287" transform="matrix(0.9383009585492859,0.3458197669097174,-0.3458197669097174,0.9383009585492859,593.4644226453256,170.2687629305371)" fill="#00a19d" filter="url(#bbburst-blur-1)"></use><use xlink:href="#bbburst-shape-10" width="17.349146924267163" opacity="0.6505251063559426" transform="matrix(0.8385331343288782,0.5448506057926222,-0.5448506057926222,0.8385331343288782,236.01232773526485,111.3058255075876)" fill="none" stroke="#ffbd9b"></use><use xlink:href="#bbburst-shape-10" width="12.944757830718174" opacity="0.8933839025094928" transform="matrix(0.9321891074766947,0.3619716396374214,-0.3619716396374214,0.9321891074766947,201.3421930701801,338.46898316709127)" fill="none" stroke="#2c2891"></use><use xlink:href="#bbburst-shape-1" width="12.278377052198" opacity="0.7285426857848535" transform="matrix(0.9790949008209073,-0.20340397042953123,0.20340397042953123,0.9790949008209073,183.80253560183297,397.17822535551664)" fill="#2c2891"></use><use xlink:href="#bbburst-shape-1" width="9.503148170078498" opacity="0.8645033717194657" transform="matrix(0.8315624277882765,0.5554312997039934,-0.5554312997039934,0.8315624277882765,353.00407569745636,450.9219756993494)" fill="#ffa6d5"></use><use xlink:href="#bbburst-shape-10" width="12.996430694982228" opacity="0.8759261488252998" transform="matrix(0.9998836207746589,0.015255979370664521,-0.015255979370664521,0.9998836207746589,118.20381340362572,363.4971074107078)" fill="none" stroke="#ffa6d5"></use><use xlink:href="#bbburst-shape-4" width="3.698208191990353" opacity="0.9926541120446601" transform="matrix(0.8971069269101605,0.4418134919734887,-0.4418134919734887,0.8971069269101605,181.2716472198475,436.4138756580194)" fill="#ffa6d5"></use><use xlink:href="#bbburst-shape-1" width="50.11334285735781" opacity="0.20983772301614667" transform="matrix(0.8869793656187401,-0.4618090568260623,0.4618090568260623,0.8869793656187401,326.15977149138996,-126.41595623670537)" fill="#ffa6d5" filter="url(#bbburst-blur-3)"></use><use xlink:href="#bbburst-shape-6" width="28.77183164982525" opacity="0.4536523400218714" transform="matrix(0.9970459978881552,0.07680675813502848,-0.07680675813502848,0.9970459978881552,333.851789251285,-44.565503998064)" fill="#2c2891" filter="url(#bbburst-blur-1)"></use><use xlink:href="#bbburst-shape-10" width="31.496811854172265" opacity="0.5505955393105637" transform="matrix(0.857522506726252,0.5144464505251495,-0.5144464505251495,0.857522506726252,330.4081695358754,21.240717483542085)" fill="none" stroke="#2c2891" filter="url(#bbburst-blur-1)"></use><use xlink:href="#bbburst-shape-4" width="16.649410298158834" opacity="0.5524043470457872" transform="matrix(0.7163713606518628,-0.6977191939726173,0.6977191939726173,0.7163713606518628,162.13639300533674,499.9189953126967)" fill="#00a19d" filter="url(#bbburst-blur-1)"></use><use xlink:href="#bbburst-shape-4" width="11.950286262874315" opacity="0.8505197849750263" transform="matrix(0.9653378724341717,0.2610034330124164,-0.2610034330124164,0.9653378724341717,234.88679472512865,350.84581250919706)" fill="#2c2891"></use><use xlink:href="#bbburst-shape-4" width="33.814378995587056" opacity="0.2976651015461954" transform="matrix(0.995578359780024,-0.09393470890846038,0.09393470890846038,0.995578359780024,631.1324159480647,250.6954223879829)" fill="#2c2891" filter="url(#bbburst-blur-2)"></use><use xlink:href="#bbburst-shape-4" width="6.362915343088576" opacity="0.9835773621191981" transform="matrix(0.7728090766906818,-0.6346385829623786,0.6346385829623786,0.7728090766906818,-249.5110034930816,477.9509719798828)" fill="#ffbd9b"></use><use xlink:href="#bbburst-shape-6" width="37.3807663979706" opacity="0.3490298598430305" transform="matrix(0.9992005093300781,-0.03997927156055373,0.03997927156055373,0.9992005093300781,614.1516508384968,348.1873108217021)" fill="#00a19d" filter="url(#bbburst-blur-2)"></use></svg>